<svg viewBox="0 0 1024 1024" xmlns="http://www.w3.org/2000/svg">
  <path d="M768 64H256a106.666667 106.666667 0 0 0-106.666667 106.666667v682.666666a106.666667 106.666667 0 0 0 106.666667 106.666667h512a106.666667 106.666667 0 0 0 106.666667-106.666667V170.666667a106.666667 106.666667 0 0 0-106.666667-106.666667z m-29.653333 554.666667H286.506667a21.333333 21.333333 0 0 1 0-42.666667h451.84a21.333333 21.333333 0 0 1 0 42.666667z m0-128H286.506667a21.333333 21.333333 0 0 1 0-42.666667h451.84a21.333333 21.333333 0 0 1 0 42.666667z m-452.693334-170.666667h451.84a21.333333 21.333333 0 0 1 0 42.666667H285.653333a21.333333 21.333333 0 0 1 0-42.666667z m239.36 426.666667H286.506667a21.333333 21.333333 0 0 1 0-42.666667h238.506666a21.333333 21.333333 0 0 1 0 42.666667z" fill="currentColor"/>
</svg>

