<svg viewBox="0 0 1024 1024" xmlns="http://www.w3.org/2000/svg">
  <path d="M392.5 575c31.5 22.2 111.2 50.1 118.6 128.2 7.4 78.1-53.8 117.1-24.1 169.2 29.7 52 129.8 83.6 215 9.2 85.3-74.3 170.6-377.3 16.7-505.6-153.8-128.1-368.8-46.3-385.5 50.3C316.5 523 392.5 575 392.5 575zM269.9 137c-62.3-11.5-120.7 22.4-130.4 75.6-9.6 53.2 32.9 105.6 95.1 117 62.3 11.4 120.7-22.5 130.4-75.7 9.7-53.1-32.9-105.5-95.1-116.9zM495.5 98.7c-47.1-8.6-91.1 17-98.5 57.2-7.3 40.2 24.9 79.8 71.9 88.4 47.1 8.7 91.1-17 98.5-57.1 7.4-40.2-24.8-79.8-71.9-88.5zM688.2 120.5c-38.9-7.2-75.3 14-81.4 47.3-6 33.2 20.6 65.9 59.5 73.1 38.9 7.2 75.3-14 81.4-47.2 6.1-33.3-20.5-66.1-59.5-73.2zM838.4 218.6c-31.2-5.8-60.4 11.2-65.2 37.8-4.9 26.6 16.4 52.8 47.6 58.6 31.2 5.7 60.3-11.3 65.3-37.8 4.8-26.6-16.5-52.8-47.7-58.6z" fill="none" stroke="currentColor" stroke-width="48"/>
</svg>

