<svg viewBox="0 0 1024 1024" xmlns="http://www.w3.org/2000/svg">
  <path d="M822.603294 516.939294a66.891294 66.891294 0 0 0 17.28753-69.451294 67.855059 67.855059 0 0 0-55.145412-46.170353l-130.228706-18.823529a30.810353 30.810353 0 0 1-23.130353-16.715294l-58.217412-117.12753a68.457412 68.457412 0 0 0-122.458353 0l-58.217412 117.12753c-4.517647 9.035294-13.131294 15.269647-23.130352 16.715294l-130.198589 18.733176a67.674353 67.674353 0 0 0-37.797647 115.651765l94.147765 91.25647a30.117647 30.117647 0 0 1 8.794353 26.925177l-22.226824 128.783059a67.102118 67.102118 0 0 0 27.105883 66.258823 68.457412 68.457412 0 0 0 71.981176 5.240471l116.464941-60.80753c8.944941-4.698353 19.606588-4.698353 28.55153 0l116.464941 60.80753a68.246588 68.246588 0 0 0 71.830588-5.150118 67.222588 67.222588 0 0 0 27.105883-66.258823l-22.226824-128.692706c-1.686588-9.938824 1.626353-20.088471 8.854588-27.105883l94.388706-91.196235z" fill="none" stroke="currentColor" stroke-width="48"/>
</svg>

